<?xml version="1.0" encoding="UTF-8" standalone="no"?>
<!DOCTYPE svg PUBLIC "-//W3C//DTD SVG 1.1//EN"
 "http://www.w3.org/Graphics/SVG/1.1/DTD/svg11.dtd">
<!-- Generated by graphviz version 2.26.0 (20091210.2329)
 -->
<!-- Title: controllers_diagram Pages: 1 -->
<svg width="623pt" height="724pt"
 viewBox="0.00 0.00 623.00 724.00" xmlns="http://www.w3.org/2000/svg" xmlns:xlink="http://www.w3.org/1999/xlink">
<g id="graph1" class="graph" transform="scale(1 1) rotate(0) translate(4 720)">
<title>controllers_diagram</title>
<polygon fill="white" stroke="white" points="-4,5 -4,-720 620,-720 620,5 -4,5"/>
<!-- _diagram_info -->
<g id="node1" class="node"><title>_diagram_info</title>
<text text-anchor="start" x="351" y="-97.3" font-family="Times Roman,serif" font-size="13.00">Controllers diagram</text>
<text text-anchor="start" x="351" y="-80.3" font-family="Times Roman,serif" font-size="13.00">Date: Jan 15 2015 &#45; 13:18</text>
<text text-anchor="start" x="351" y="-63.3" font-family="Times Roman,serif" font-size="13.00">Migration version: 20141223151842</text>
<text text-anchor="start" x="351" y="-46.3" font-family="Times Roman,serif" font-size="13.00">Generated by RailRoady 1.2.0</text>
<text text-anchor="start" x="351" y="-29.3" font-family="Times Roman,serif" font-size="13.00">http://railroady.prestonlee.com</text>
</g>
<!-- CartsController -->
<g id="node2" class="node"><title>CartsController</title>
<polyline fill="none" stroke="black" points="70,-153.5 147,-153.5 "/>
<path fill="none" stroke="black" d="M147,-153.5C153,-153.5 159,-159.5 159,-165.5"/>
<polyline fill="none" stroke="black" points="159,-165.5 159,-398.5 "/>
<path fill="none" stroke="black" d="M159,-398.5C159,-404.5 153,-410.5 147,-410.5"/>
<polyline fill="none" stroke="black" points="147,-410.5 70,-410.5 "/>
<path fill="none" stroke="black" d="M70,-410.5C64,-410.5 58,-404.5 58,-398.5"/>
<polyline fill="none" stroke="black" points="58,-398.5 58,-165.5 "/>
<path fill="none" stroke="black" d="M58,-165.5C58,-159.5 64,-153.5 70,-153.5"/>
<text text-anchor="middle" x="108.5" y="-393.9" font-family="Times Roman,serif" font-size="14.00">CartsController</text>
<polyline fill="none" stroke="black" points="58,-383.5 159,-383.5 "/>
<text text-anchor="start" x="66" y="-366.9" font-family="Times Roman,serif" font-size="14.00">create</text>
<text text-anchor="start" x="66" y="-347.9" font-family="Times Roman,serif" font-size="14.00">destroy</text>
<text text-anchor="start" x="66" y="-328.9" font-family="Times Roman,serif" font-size="14.00">edit</text>
<text text-anchor="start" x="66" y="-309.9" font-family="Times Roman,serif" font-size="14.00">index</text>
<text text-anchor="start" x="66" y="-290.9" font-family="Times Roman,serif" font-size="14.00">new</text>
<text text-anchor="start" x="66" y="-271.9" font-family="Times Roman,serif" font-size="14.00">show</text>
<text text-anchor="start" x="66" y="-252.9" font-family="Times Roman,serif" font-size="14.00">update</text>
<polyline fill="none" stroke="black" points="58,-242.5 159,-242.5 "/>
<polyline fill="none" stroke="black" points="58,-218.5 159,-218.5 "/>
<text text-anchor="start" x="66" y="-201.9" font-family="Times Roman,serif" font-size="14.00">_layout</text>
<text text-anchor="start" x="66" y="-182.9" font-family="Times Roman,serif" font-size="14.00">cart_params</text>
<text text-anchor="start" x="66" y="-163.9" font-family="Times Roman,serif" font-size="14.00">set_cart</text>
</g>
<!-- ApplicationController -->
<g id="node3" class="node"><title>ApplicationController</title>
<polyline fill="none" stroke="black" points="488,-476.5 600,-476.5 "/>
<path fill="none" stroke="black" d="M600,-476.5C606,-476.5 612,-482.5 612,-488.5"/>
<polyline fill="none" stroke="black" points="612,-488.5 612,-604.5 "/>
<path fill="none" stroke="black" d="M612,-604.5C612,-610.5 606,-616.5 600,-616.5"/>
<polyline fill="none" stroke="black" points="600,-616.5 488,-616.5 "/>
<path fill="none" stroke="black" d="M488,-616.5C482,-616.5 476,-610.5 476,-604.5"/>
<polyline fill="none" stroke="black" points="476,-604.5 476,-488.5 "/>
<path fill="none" stroke="black" d="M476,-488.5C476,-482.5 482,-476.5 488,-476.5"/>
<text text-anchor="middle" x="544" y="-599.9" font-family="Times Roman,serif" font-size="14.00">ApplicationController</text>
<polyline fill="none" stroke="black" points="476,-589.5 612,-589.5 "/>
<polyline fill="none" stroke="black" points="476,-565.5 612,-565.5 "/>
<polyline fill="none" stroke="black" points="476,-541.5 612,-541.5 "/>
<text text-anchor="start" x="484" y="-524.9" font-family="Times Roman,serif" font-size="14.00">_layout</text>
<text text-anchor="start" x="484" y="-505.9" font-family="Times Roman,serif" font-size="14.00">authorize</text>
<text text-anchor="start" x="484" y="-486.9" font-family="Times Roman,serif" font-size="14.00">current_cart</text>
</g>
<!-- StoreController -->
<g id="node4" class="node"><title>StoreController</title>
<polyline fill="none" stroke="black" points="355,-476.5 432,-476.5 "/>
<path fill="none" stroke="black" d="M432,-476.5C438,-476.5 444,-482.5 444,-488.5"/>
<polyline fill="none" stroke="black" points="444,-488.5 444,-569.5 "/>
<path fill="none" stroke="black" d="M444,-569.5C444,-575.5 438,-581.5 432,-581.5"/>
<polyline fill="none" stroke="black" points="432,-581.5 355,-581.5 "/>
<path fill="none" stroke="black" d="M355,-581.5C349,-581.5 343,-575.5 343,-569.5"/>
<polyline fill="none" stroke="black" points="343,-569.5 343,-488.5 "/>
<path fill="none" stroke="black" d="M343,-488.5C343,-482.5 349,-476.5 355,-476.5"/>
<text text-anchor="middle" x="393.5" y="-564.9" font-family="Times Roman,serif" font-size="14.00">StoreController</text>
<polyline fill="none" stroke="black" points="343,-554.5 444,-554.5 "/>
<text text-anchor="start" x="351" y="-537.9" font-family="Times Roman,serif" font-size="14.00">index</text>
<polyline fill="none" stroke="black" points="343,-527.5 444,-527.5 "/>
<polyline fill="none" stroke="black" points="343,-503.5 444,-503.5 "/>
<text text-anchor="start" x="351" y="-486.9" font-family="Times Roman,serif" font-size="14.00">_layout</text>
</g>
<!-- OrdersController -->
<g id="node5" class="node"><title>OrdersController</title>
<polyline fill="none" stroke="black" points="203,-77.5 289,-77.5 "/>
<path fill="none" stroke="black" d="M289,-77.5C295,-77.5 301,-83.5 301,-89.5"/>
<polyline fill="none" stroke="black" points="301,-89.5 301,-398.5 "/>
<path fill="none" stroke="black" d="M301,-398.5C301,-404.5 295,-410.5 289,-410.5"/>
<polyline fill="none" stroke="black" points="289,-410.5 203,-410.5 "/>
<path fill="none" stroke="black" d="M203,-410.5C197,-410.5 191,-404.5 191,-398.5"/>
<polyline fill="none" stroke="black" points="191,-398.5 191,-89.5 "/>
<path fill="none" stroke="black" d="M191,-89.5C191,-83.5 197,-77.5 203,-77.5"/>
<text text-anchor="middle" x="246" y="-393.9" font-family="Times Roman,serif" font-size="14.00">OrdersController</text>
<polyline fill="none" stroke="black" points="191,-383.5 301,-383.5 "/>
<text text-anchor="start" x="199" y="-366.9" font-family="Times Roman,serif" font-size="14.00">confirm</text>
<text text-anchor="start" x="199" y="-347.9" font-family="Times Roman,serif" font-size="14.00">create</text>
<text text-anchor="start" x="199" y="-328.9" font-family="Times Roman,serif" font-size="14.00">destroy</text>
<text text-anchor="start" x="199" y="-309.9" font-family="Times Roman,serif" font-size="14.00">edit</text>
<text text-anchor="start" x="199" y="-290.9" font-family="Times Roman,serif" font-size="14.00">index</text>
<text text-anchor="start" x="199" y="-271.9" font-family="Times Roman,serif" font-size="14.00">new</text>
<text text-anchor="start" x="199" y="-252.9" font-family="Times Roman,serif" font-size="14.00">show</text>
<text text-anchor="start" x="199" y="-233.9" font-family="Times Roman,serif" font-size="14.00">store</text>
<text text-anchor="start" x="199" y="-214.9" font-family="Times Roman,serif" font-size="14.00">update</text>
<polyline fill="none" stroke="black" points="191,-204.5 301,-204.5 "/>
<polyline fill="none" stroke="black" points="191,-180.5 301,-180.5 "/>
<text text-anchor="start" x="199" y="-163.9" font-family="Times Roman,serif" font-size="14.00">_layout</text>
<text text-anchor="start" x="199" y="-144.9" font-family="Times Roman,serif" font-size="14.00">invalid?</text>
<text text-anchor="start" x="199" y="-125.9" font-family="Times Roman,serif" font-size="14.00">order_params</text>
<text text-anchor="start" x="199" y="-106.9" font-family="Times Roman,serif" font-size="14.00">render_order_list</text>
<text text-anchor="start" x="199" y="-87.9" font-family="Times Roman,serif" font-size="14.00">set_order</text>
</g>
<!-- AdminController -->
<g id="node6" class="node"><title>AdminController</title>
<polyline fill="none" stroke="black" points="13,-1.5 99,-1.5 "/>
<path fill="none" stroke="black" d="M99,-1.5C105,-1.5 111,-7.5 111,-13.5"/>
<polyline fill="none" stroke="black" points="111,-13.5 111,-94.5 "/>
<path fill="none" stroke="black" d="M111,-94.5C111,-100.5 105,-106.5 99,-106.5"/>
<polyline fill="none" stroke="black" points="99,-106.5 13,-106.5 "/>
<path fill="none" stroke="black" d="M13,-106.5C7,-106.5 1,-100.5 1,-94.5"/>
<polyline fill="none" stroke="black" points="1,-94.5 1,-13.5 "/>
<path fill="none" stroke="black" d="M1,-13.5C1,-7.5 7,-1.5 13,-1.5"/>
<text text-anchor="middle" x="56" y="-89.9" font-family="Times Roman,serif" font-size="14.00">AdminController</text>
<polyline fill="none" stroke="black" points="1,-79.5 111,-79.5 "/>
<text text-anchor="start" x="9" y="-62.9" font-family="Times Roman,serif" font-size="14.00">index</text>
<polyline fill="none" stroke="black" points="1,-52.5 111,-52.5 "/>
<polyline fill="none" stroke="black" points="1,-28.5 111,-28.5 "/>
<text text-anchor="start" x="9" y="-11.9" font-family="Times Roman,serif" font-size="14.00">_layout</text>
</g>
<!-- LineItemsController -->
<g id="node7" class="node"><title>LineItemsController</title>
<polyline fill="none" stroke="black" points="184,-457.5 288,-457.5 "/>
<path fill="none" stroke="black" d="M288,-457.5C294,-457.5 300,-463.5 300,-469.5"/>
<polyline fill="none" stroke="black" points="300,-469.5 300,-702.5 "/>
<path fill="none" stroke="black" d="M300,-702.5C300,-708.5 294,-714.5 288,-714.5"/>
<polyline fill="none" stroke="black" points="288,-714.5 184,-714.5 "/>
<path fill="none" stroke="black" d="M184,-714.5C178,-714.5 172,-708.5 172,-702.5"/>
<polyline fill="none" stroke="black" points="172,-702.5 172,-469.5 "/>
<path fill="none" stroke="black" d="M172,-469.5C172,-463.5 178,-457.5 184,-457.5"/>
<text text-anchor="middle" x="236" y="-697.9" font-family="Times Roman,serif" font-size="14.00">LineItemsController</text>
<polyline fill="none" stroke="black" points="172,-687.5 300,-687.5 "/>
<text text-anchor="start" x="180" y="-670.9" font-family="Times Roman,serif" font-size="14.00">create</text>
<text text-anchor="start" x="180" y="-651.9" font-family="Times Roman,serif" font-size="14.00">destroy</text>
<text text-anchor="start" x="180" y="-632.9" font-family="Times Roman,serif" font-size="14.00">edit</text>
<text text-anchor="start" x="180" y="-613.9" font-family="Times Roman,serif" font-size="14.00">index</text>
<text text-anchor="start" x="180" y="-594.9" font-family="Times Roman,serif" font-size="14.00">new</text>
<text text-anchor="start" x="180" y="-575.9" font-family="Times Roman,serif" font-size="14.00">show</text>
<text text-anchor="start" x="180" y="-556.9" font-family="Times Roman,serif" font-size="14.00">update</text>
<polyline fill="none" stroke="black" points="172,-546.5 300,-546.5 "/>
<polyline fill="none" stroke="black" points="172,-522.5 300,-522.5 "/>
<text text-anchor="start" x="180" y="-505.9" font-family="Times Roman,serif" font-size="14.00">_layout</text>
<text text-anchor="start" x="180" y="-486.9" font-family="Times Roman,serif" font-size="14.00">line_item_params</text>
<text text-anchor="start" x="180" y="-467.9" font-family="Times Roman,serif" font-size="14.00">set_line_item</text>
</g>
<!-- SessionsController -->
<g id="node8" class="node"><title>SessionsController</title>
<polyline fill="none" stroke="black" points="507,-153.5 602,-153.5 "/>
<path fill="none" stroke="black" d="M602,-153.5C608,-153.5 614,-159.5 614,-165.5"/>
<polyline fill="none" stroke="black" points="614,-165.5 614,-284.5 "/>
<path fill="none" stroke="black" d="M614,-284.5C614,-290.5 608,-296.5 602,-296.5"/>
<polyline fill="none" stroke="black" points="602,-296.5 507,-296.5 "/>
<path fill="none" stroke="black" d="M507,-296.5C501,-296.5 495,-290.5 495,-284.5"/>
<polyline fill="none" stroke="black" points="495,-284.5 495,-165.5 "/>
<path fill="none" stroke="black" d="M495,-165.5C495,-159.5 501,-153.5 507,-153.5"/>
<text text-anchor="middle" x="554.5" y="-279.9" font-family="Times Roman,serif" font-size="14.00">SessionsController</text>
<polyline fill="none" stroke="black" points="495,-269.5 614,-269.5 "/>
<text text-anchor="start" x="503" y="-252.9" font-family="Times Roman,serif" font-size="14.00">create</text>
<text text-anchor="start" x="503" y="-233.9" font-family="Times Roman,serif" font-size="14.00">destroy</text>
<text text-anchor="start" x="503" y="-214.9" font-family="Times Roman,serif" font-size="14.00">new</text>
<polyline fill="none" stroke="black" points="495,-204.5 614,-204.5 "/>
<polyline fill="none" stroke="black" points="495,-180.5 614,-180.5 "/>
<text text-anchor="start" x="503" y="-163.9" font-family="Times Roman,serif" font-size="14.00">_layout</text>
</g>
<!-- ProductsController -->
<g id="node9" class="node"><title>ProductsController</title>
<polyline fill="none" stroke="black" points="355,-153.5 450,-153.5 "/>
<path fill="none" stroke="black" d="M450,-153.5C456,-153.5 462,-159.5 462,-165.5"/>
<polyline fill="none" stroke="black" points="462,-165.5 462,-417.5 "/>
<path fill="none" stroke="black" d="M462,-417.5C462,-423.5 456,-429.5 450,-429.5"/>
<polyline fill="none" stroke="black" points="450,-429.5 355,-429.5 "/>
<path fill="none" stroke="black" d="M355,-429.5C349,-429.5 343,-423.5 343,-417.5"/>
<polyline fill="none" stroke="black" points="343,-417.5 343,-165.5 "/>
<path fill="none" stroke="black" d="M343,-165.5C343,-159.5 349,-153.5 355,-153.5"/>
<text text-anchor="middle" x="402.5" y="-412.9" font-family="Times Roman,serif" font-size="14.00">ProductsController</text>
<polyline fill="none" stroke="black" points="343,-402.5 462,-402.5 "/>
<text text-anchor="start" x="351" y="-385.9" font-family="Times Roman,serif" font-size="14.00">create</text>
<text text-anchor="start" x="351" y="-366.9" font-family="Times Roman,serif" font-size="14.00">destroy</text>
<text text-anchor="start" x="351" y="-347.9" font-family="Times Roman,serif" font-size="14.00">edit</text>
<text text-anchor="start" x="351" y="-328.9" font-family="Times Roman,serif" font-size="14.00">index</text>
<text text-anchor="start" x="351" y="-309.9" font-family="Times Roman,serif" font-size="14.00">new</text>
<text text-anchor="start" x="351" y="-290.9" font-family="Times Roman,serif" font-size="14.00">show</text>
<text text-anchor="start" x="351" y="-271.9" font-family="Times Roman,serif" font-size="14.00">update</text>
<text text-anchor="start" x="351" y="-252.9" font-family="Times Roman,serif" font-size="14.00">who_bought</text>
<polyline fill="none" stroke="black" points="343,-242.5 462,-242.5 "/>
<polyline fill="none" stroke="black" points="343,-218.5 462,-218.5 "/>
<text text-anchor="start" x="351" y="-201.9" font-family="Times Roman,serif" font-size="14.00">_layout</text>
<text text-anchor="start" x="351" y="-182.9" font-family="Times Roman,serif" font-size="14.00">product_params</text>
<text text-anchor="start" x="351" y="-163.9" font-family="Times Roman,serif" font-size="14.00">set_product</text>
</g>
<!-- UsersController -->
<g id="node10" class="node"><title>UsersController</title>
<polyline fill="none" stroke="black" points="51,-457.5 130,-457.5 "/>
<path fill="none" stroke="black" d="M130,-457.5C136,-457.5 142,-463.5 142,-469.5"/>
<polyline fill="none" stroke="black" points="142,-469.5 142,-702.5 "/>
<path fill="none" stroke="black" d="M142,-702.5C142,-708.5 136,-714.5 130,-714.5"/>
<polyline fill="none" stroke="black" points="130,-714.5 51,-714.5 "/>
<path fill="none" stroke="black" d="M51,-714.5C45,-714.5 39,-708.5 39,-702.5"/>
<polyline fill="none" stroke="black" points="39,-702.5 39,-469.5 "/>
<path fill="none" stroke="black" d="M39,-469.5C39,-463.5 45,-457.5 51,-457.5"/>
<text text-anchor="middle" x="90.5" y="-697.9" font-family="Times Roman,serif" font-size="14.00">UsersController</text>
<polyline fill="none" stroke="black" points="39,-687.5 142,-687.5 "/>
<text text-anchor="start" x="47" y="-670.9" font-family="Times Roman,serif" font-size="14.00">create</text>
<text text-anchor="start" x="47" y="-651.9" font-family="Times Roman,serif" font-size="14.00">destroy</text>
<text text-anchor="start" x="47" y="-632.9" font-family="Times Roman,serif" font-size="14.00">edit</text>
<text text-anchor="start" x="47" y="-613.9" font-family="Times Roman,serif" font-size="14.00">index</text>
<text text-anchor="start" x="47" y="-594.9" font-family="Times Roman,serif" font-size="14.00">new</text>
<text text-anchor="start" x="47" y="-575.9" font-family="Times Roman,serif" font-size="14.00">show</text>
<text text-anchor="start" x="47" y="-556.9" font-family="Times Roman,serif" font-size="14.00">update</text>
<polyline fill="none" stroke="black" points="39,-546.5 142,-546.5 "/>
<polyline fill="none" stroke="black" points="39,-522.5 142,-522.5 "/>
<text text-anchor="start" x="47" y="-505.9" font-family="Times Roman,serif" font-size="14.00">_layout</text>
<text text-anchor="start" x="47" y="-486.9" font-family="Times Roman,serif" font-size="14.00">set_user</text>
<text text-anchor="start" x="47" y="-467.9" font-family="Times Roman,serif" font-size="14.00">user_params</text>
</g>
</g>
</svg>
