<?xml version="1.0" encoding="UTF-8" standalone="no"?>
<!DOCTYPE svg PUBLIC "-//W3C//DTD SVG 1.1//EN"
 "http://www.w3.org/Graphics/SVG/1.1/DTD/svg11.dtd">
<!-- Generated by graphviz version 2.26.0 (20091210.2329)
 -->
<!-- Title: controllers_diagram Pages: 1 -->
<svg width="650pt" height="754pt"
 viewBox="0.00 0.00 650.00 754.00" xmlns="http://www.w3.org/2000/svg" xmlns:xlink="http://www.w3.org/1999/xlink">
<g id="graph1" class="graph" transform="scale(1 1) rotate(0) translate(4 750)">
<title>controllers_diagram</title>
<polygon fill="white" stroke="white" points="-4,5 -4,-750 647,-750 647,5 -4,5"/>
<!-- _diagram_info -->
<g id="node1" class="node"><title>_diagram_info</title>
<text text-anchor="start" x="351" y="-150.3" font-family="Times Roman,serif" font-size="13.00">Controllers diagram</text>
<text text-anchor="start" x="351" y="-133.3" font-family="Times Roman,serif" font-size="13.00">Date: Jan 09 2015 &#45; 12:28</text>
<text text-anchor="start" x="351" y="-116.3" font-family="Times Roman,serif" font-size="13.00">Migration version: 20150106023606</text>
<text text-anchor="start" x="351" y="-99.3" font-family="Times Roman,serif" font-size="13.00">Generated by RailRoady 1.2.0</text>
<text text-anchor="start" x="351" y="-82.3" font-family="Times Roman,serif" font-size="13.00">http://railroady.prestonlee.com</text>
</g>
<!-- CartsController -->
<g id="node2" class="node"><title>CartsController</title>
<polyline fill="none" stroke="black" points="67,-145.5 144,-145.5 "/>
<path fill="none" stroke="black" d="M144,-145.5C150,-145.5 156,-151.5 156,-157.5"/>
<polyline fill="none" stroke="black" points="156,-157.5 156,-390.5 "/>
<path fill="none" stroke="black" d="M156,-390.5C156,-396.5 150,-402.5 144,-402.5"/>
<polyline fill="none" stroke="black" points="144,-402.5 67,-402.5 "/>
<path fill="none" stroke="black" d="M67,-402.5C61,-402.5 55,-396.5 55,-390.5"/>
<polyline fill="none" stroke="black" points="55,-390.5 55,-157.5 "/>
<path fill="none" stroke="black" d="M55,-157.5C55,-151.5 61,-145.5 67,-145.5"/>
<text text-anchor="middle" x="105.5" y="-385.9" font-family="Times Roman,serif" font-size="14.00">CartsController</text>
<polyline fill="none" stroke="black" points="55,-375.5 156,-375.5 "/>
<text text-anchor="start" x="63" y="-358.9" font-family="Times Roman,serif" font-size="14.00">create</text>
<text text-anchor="start" x="63" y="-339.9" font-family="Times Roman,serif" font-size="14.00">destroy</text>
<text text-anchor="start" x="63" y="-320.9" font-family="Times Roman,serif" font-size="14.00">edit</text>
<text text-anchor="start" x="63" y="-301.9" font-family="Times Roman,serif" font-size="14.00">index</text>
<text text-anchor="start" x="63" y="-282.9" font-family="Times Roman,serif" font-size="14.00">new</text>
<text text-anchor="start" x="63" y="-263.9" font-family="Times Roman,serif" font-size="14.00">show</text>
<text text-anchor="start" x="63" y="-244.9" font-family="Times Roman,serif" font-size="14.00">update</text>
<polyline fill="none" stroke="black" points="55,-234.5 156,-234.5 "/>
<polyline fill="none" stroke="black" points="55,-210.5 156,-210.5 "/>
<text text-anchor="start" x="63" y="-193.9" font-family="Times Roman,serif" font-size="14.00">_layout</text>
<text text-anchor="start" x="63" y="-174.9" font-family="Times Roman,serif" font-size="14.00">cart_params</text>
<text text-anchor="start" x="63" y="-155.9" font-family="Times Roman,serif" font-size="14.00">set_cart</text>
</g>
<!-- ApplicationController -->
<g id="node3" class="node"><title>ApplicationController</title>
<polyline fill="none" stroke="black" points="517,-199.5 629,-199.5 "/>
<path fill="none" stroke="black" d="M629,-199.5C635,-199.5 641,-205.5 641,-211.5"/>
<polyline fill="none" stroke="black" points="641,-211.5 641,-327.5 "/>
<path fill="none" stroke="black" d="M641,-327.5C641,-333.5 635,-339.5 629,-339.5"/>
<polyline fill="none" stroke="black" points="629,-339.5 517,-339.5 "/>
<path fill="none" stroke="black" d="M517,-339.5C511,-339.5 505,-333.5 505,-327.5"/>
<polyline fill="none" stroke="black" points="505,-327.5 505,-211.5 "/>
<path fill="none" stroke="black" d="M505,-211.5C505,-205.5 511,-199.5 517,-199.5"/>
<text text-anchor="middle" x="573" y="-322.9" font-family="Times Roman,serif" font-size="14.00">ApplicationController</text>
<polyline fill="none" stroke="black" points="505,-312.5 641,-312.5 "/>
<polyline fill="none" stroke="black" points="505,-288.5 641,-288.5 "/>
<polyline fill="none" stroke="black" points="505,-264.5 641,-264.5 "/>
<text text-anchor="start" x="513" y="-247.9" font-family="Times Roman,serif" font-size="14.00">_layout</text>
<text text-anchor="start" x="513" y="-228.9" font-family="Times Roman,serif" font-size="14.00">authorize</text>
<text text-anchor="start" x="513" y="-209.9" font-family="Times Roman,serif" font-size="14.00">current_cart</text>
</g>
<!-- StoreController -->
<g id="node4" class="node"><title>StoreController</title>
<polyline fill="none" stroke="black" points="13,-1.5 90,-1.5 "/>
<path fill="none" stroke="black" d="M90,-1.5C96,-1.5 102,-7.5 102,-13.5"/>
<polyline fill="none" stroke="black" points="102,-13.5 102,-94.5 "/>
<path fill="none" stroke="black" d="M102,-94.5C102,-100.5 96,-106.5 90,-106.5"/>
<polyline fill="none" stroke="black" points="90,-106.5 13,-106.5 "/>
<path fill="none" stroke="black" d="M13,-106.5C7,-106.5 1,-100.5 1,-94.5"/>
<polyline fill="none" stroke="black" points="1,-94.5 1,-13.5 "/>
<path fill="none" stroke="black" d="M1,-13.5C1,-7.5 7,-1.5 13,-1.5"/>
<text text-anchor="middle" x="51.5" y="-89.9" font-family="Times Roman,serif" font-size="14.00">StoreController</text>
<polyline fill="none" stroke="black" points="1,-79.5 102,-79.5 "/>
<text text-anchor="start" x="9" y="-62.9" font-family="Times Roman,serif" font-size="14.00">index</text>
<polyline fill="none" stroke="black" points="1,-52.5 102,-52.5 "/>
<polyline fill="none" stroke="black" points="1,-28.5 102,-28.5 "/>
<text text-anchor="start" x="9" y="-11.9" font-family="Times Roman,serif" font-size="14.00">_layout</text>
</g>
<!-- OrdersController -->
<g id="node5" class="node"><title>OrdersController</title>
<polyline fill="none" stroke="black" points="211,-127.5 297,-127.5 "/>
<path fill="none" stroke="black" d="M297,-127.5C303,-127.5 309,-133.5 309,-139.5"/>
<polyline fill="none" stroke="black" points="309,-139.5 309,-391.5 "/>
<path fill="none" stroke="black" d="M309,-391.5C309,-397.5 303,-403.5 297,-403.5"/>
<polyline fill="none" stroke="black" points="297,-403.5 211,-403.5 "/>
<path fill="none" stroke="black" d="M211,-403.5C205,-403.5 199,-397.5 199,-391.5"/>
<polyline fill="none" stroke="black" points="199,-391.5 199,-139.5 "/>
<path fill="none" stroke="black" d="M199,-139.5C199,-133.5 205,-127.5 211,-127.5"/>
<text text-anchor="middle" x="254" y="-386.9" font-family="Times Roman,serif" font-size="14.00">OrdersController</text>
<polyline fill="none" stroke="black" points="199,-376.5 309,-376.5 "/>
<text text-anchor="start" x="207" y="-359.9" font-family="Times Roman,serif" font-size="14.00">create</text>
<text text-anchor="start" x="207" y="-340.9" font-family="Times Roman,serif" font-size="14.00">destroy</text>
<text text-anchor="start" x="207" y="-321.9" font-family="Times Roman,serif" font-size="14.00">edit</text>
<text text-anchor="start" x="207" y="-302.9" font-family="Times Roman,serif" font-size="14.00">index</text>
<text text-anchor="start" x="207" y="-283.9" font-family="Times Roman,serif" font-size="14.00">new</text>
<text text-anchor="start" x="207" y="-264.9" font-family="Times Roman,serif" font-size="14.00">show</text>
<text text-anchor="start" x="207" y="-245.9" font-family="Times Roman,serif" font-size="14.00">update</text>
<polyline fill="none" stroke="black" points="199,-235.5 309,-235.5 "/>
<polyline fill="none" stroke="black" points="199,-211.5 309,-211.5 "/>
<text text-anchor="start" x="207" y="-194.9" font-family="Times Roman,serif" font-size="14.00">_layout</text>
<text text-anchor="start" x="207" y="-175.9" font-family="Times Roman,serif" font-size="14.00">order_params</text>
<text text-anchor="start" x="207" y="-156.9" font-family="Times Roman,serif" font-size="14.00">render_order_list</text>
<text text-anchor="start" x="207" y="-137.9" font-family="Times Roman,serif" font-size="14.00">set_order</text>
</g>
<!-- AdminController -->
<g id="node6" class="node"><title>AdminController</title>
<polyline fill="none" stroke="black" points="355,-487.5 441,-487.5 "/>
<path fill="none" stroke="black" d="M441,-487.5C447,-487.5 453,-493.5 453,-499.5"/>
<polyline fill="none" stroke="black" points="453,-499.5 453,-580.5 "/>
<path fill="none" stroke="black" d="M453,-580.5C453,-586.5 447,-592.5 441,-592.5"/>
<polyline fill="none" stroke="black" points="441,-592.5 355,-592.5 "/>
<path fill="none" stroke="black" d="M355,-592.5C349,-592.5 343,-586.5 343,-580.5"/>
<polyline fill="none" stroke="black" points="343,-580.5 343,-499.5 "/>
<path fill="none" stroke="black" d="M343,-499.5C343,-493.5 349,-487.5 355,-487.5"/>
<text text-anchor="middle" x="398" y="-575.9" font-family="Times Roman,serif" font-size="14.00">AdminController</text>
<polyline fill="none" stroke="black" points="343,-565.5 453,-565.5 "/>
<text text-anchor="start" x="351" y="-548.9" font-family="Times Roman,serif" font-size="14.00">index</text>
<polyline fill="none" stroke="black" points="343,-538.5 453,-538.5 "/>
<polyline fill="none" stroke="black" points="343,-514.5 453,-514.5 "/>
<text text-anchor="start" x="351" y="-497.9" font-family="Times Roman,serif" font-size="14.00">_layout</text>
</g>
<!-- LineItemsController -->
<g id="node7" class="node"><title>LineItemsController</title>
<polyline fill="none" stroke="black" points="355,-199.5 459,-199.5 "/>
<path fill="none" stroke="black" d="M459,-199.5C465,-199.5 471,-205.5 471,-211.5"/>
<polyline fill="none" stroke="black" points="471,-211.5 471,-444.5 "/>
<path fill="none" stroke="black" d="M471,-444.5C471,-450.5 465,-456.5 459,-456.5"/>
<polyline fill="none" stroke="black" points="459,-456.5 355,-456.5 "/>
<path fill="none" stroke="black" d="M355,-456.5C349,-456.5 343,-450.5 343,-444.5"/>
<polyline fill="none" stroke="black" points="343,-444.5 343,-211.5 "/>
<path fill="none" stroke="black" d="M343,-211.5C343,-205.5 349,-199.5 355,-199.5"/>
<text text-anchor="middle" x="407" y="-439.9" font-family="Times Roman,serif" font-size="14.00">LineItemsController</text>
<polyline fill="none" stroke="black" points="343,-429.5 471,-429.5 "/>
<text text-anchor="start" x="351" y="-412.9" font-family="Times Roman,serif" font-size="14.00">create</text>
<text text-anchor="start" x="351" y="-393.9" font-family="Times Roman,serif" font-size="14.00">destroy</text>
<text text-anchor="start" x="351" y="-374.9" font-family="Times Roman,serif" font-size="14.00">edit</text>
<text text-anchor="start" x="351" y="-355.9" font-family="Times Roman,serif" font-size="14.00">index</text>
<text text-anchor="start" x="351" y="-336.9" font-family="Times Roman,serif" font-size="14.00">new</text>
<text text-anchor="start" x="351" y="-317.9" font-family="Times Roman,serif" font-size="14.00">show</text>
<text text-anchor="start" x="351" y="-298.9" font-family="Times Roman,serif" font-size="14.00">update</text>
<polyline fill="none" stroke="black" points="343,-288.5 471,-288.5 "/>
<polyline fill="none" stroke="black" points="343,-264.5 471,-264.5 "/>
<text text-anchor="start" x="351" y="-247.9" font-family="Times Roman,serif" font-size="14.00">_layout</text>
<text text-anchor="start" x="351" y="-228.9" font-family="Times Roman,serif" font-size="14.00">line_item_params</text>
<text text-anchor="start" x="351" y="-209.9" font-family="Times Roman,serif" font-size="14.00">set_line_item</text>
</g>
<!-- SessionsController -->
<g id="node8" class="node"><title>SessionsController</title>
<polyline fill="none" stroke="black" points="31,-523.5 126,-523.5 "/>
<path fill="none" stroke="black" d="M126,-523.5C132,-523.5 138,-529.5 138,-535.5"/>
<polyline fill="none" stroke="black" points="138,-535.5 138,-654.5 "/>
<path fill="none" stroke="black" d="M138,-654.5C138,-660.5 132,-666.5 126,-666.5"/>
<polyline fill="none" stroke="black" points="126,-666.5 31,-666.5 "/>
<path fill="none" stroke="black" d="M31,-666.5C25,-666.5 19,-660.5 19,-654.5"/>
<polyline fill="none" stroke="black" points="19,-654.5 19,-535.5 "/>
<path fill="none" stroke="black" d="M19,-535.5C19,-529.5 25,-523.5 31,-523.5"/>
<text text-anchor="middle" x="78.5" y="-649.9" font-family="Times Roman,serif" font-size="14.00">SessionsController</text>
<polyline fill="none" stroke="black" points="19,-639.5 138,-639.5 "/>
<text text-anchor="start" x="27" y="-622.9" font-family="Times Roman,serif" font-size="14.00">create</text>
<text text-anchor="start" x="27" y="-603.9" font-family="Times Roman,serif" font-size="14.00">destroy</text>
<text text-anchor="start" x="27" y="-584.9" font-family="Times Roman,serif" font-size="14.00">new</text>
<polyline fill="none" stroke="black" points="19,-574.5 138,-574.5 "/>
<polyline fill="none" stroke="black" points="19,-550.5 138,-550.5 "/>
<text text-anchor="start" x="27" y="-533.9" font-family="Times Roman,serif" font-size="14.00">_layout</text>
</g>
<!-- ProductsController -->
<g id="node9" class="node"><title>ProductsController</title>
<polyline fill="none" stroke="black" points="193,-433.5 288,-433.5 "/>
<path fill="none" stroke="black" d="M288,-433.5C294,-433.5 300,-439.5 300,-445.5"/>
<polyline fill="none" stroke="black" points="300,-445.5 300,-697.5 "/>
<path fill="none" stroke="black" d="M300,-697.5C300,-703.5 294,-709.5 288,-709.5"/>
<polyline fill="none" stroke="black" points="288,-709.5 193,-709.5 "/>
<path fill="none" stroke="black" d="M193,-709.5C187,-709.5 181,-703.5 181,-697.5"/>
<polyline fill="none" stroke="black" points="181,-697.5 181,-445.5 "/>
<path fill="none" stroke="black" d="M181,-445.5C181,-439.5 187,-433.5 193,-433.5"/>
<text text-anchor="middle" x="240.5" y="-692.9" font-family="Times Roman,serif" font-size="14.00">ProductsController</text>
<polyline fill="none" stroke="black" points="181,-682.5 300,-682.5 "/>
<text text-anchor="start" x="189" y="-665.9" font-family="Times Roman,serif" font-size="14.00">create</text>
<text text-anchor="start" x="189" y="-646.9" font-family="Times Roman,serif" font-size="14.00">destroy</text>
<text text-anchor="start" x="189" y="-627.9" font-family="Times Roman,serif" font-size="14.00">edit</text>
<text text-anchor="start" x="189" y="-608.9" font-family="Times Roman,serif" font-size="14.00">index</text>
<text text-anchor="start" x="189" y="-589.9" font-family="Times Roman,serif" font-size="14.00">new</text>
<text text-anchor="start" x="189" y="-570.9" font-family="Times Roman,serif" font-size="14.00">show</text>
<text text-anchor="start" x="189" y="-551.9" font-family="Times Roman,serif" font-size="14.00">update</text>
<text text-anchor="start" x="189" y="-532.9" font-family="Times Roman,serif" font-size="14.00">who_bought</text>
<polyline fill="none" stroke="black" points="181,-522.5 300,-522.5 "/>
<polyline fill="none" stroke="black" points="181,-498.5 300,-498.5 "/>
<text text-anchor="start" x="189" y="-481.9" font-family="Times Roman,serif" font-size="14.00">_layout</text>
<text text-anchor="start" x="189" y="-462.9" font-family="Times Roman,serif" font-size="14.00">product_params</text>
<text text-anchor="start" x="189" y="-443.9" font-family="Times Roman,serif" font-size="14.00">set_product</text>
</g>
<!-- UsersController -->
<g id="node10" class="node"><title>UsersController</title>
<polyline fill="none" stroke="black" points="499,-487.5 578,-487.5 "/>
<path fill="none" stroke="black" d="M578,-487.5C584,-487.5 590,-493.5 590,-499.5"/>
<polyline fill="none" stroke="black" points="590,-499.5 590,-732.5 "/>
<path fill="none" stroke="black" d="M590,-732.5C590,-738.5 584,-744.5 578,-744.5"/>
<polyline fill="none" stroke="black" points="578,-744.5 499,-744.5 "/>
<path fill="none" stroke="black" d="M499,-744.5C493,-744.5 487,-738.5 487,-732.5"/>
<polyline fill="none" stroke="black" points="487,-732.5 487,-499.5 "/>
<path fill="none" stroke="black" d="M487,-499.5C487,-493.5 493,-487.5 499,-487.5"/>
<text text-anchor="middle" x="538.5" y="-727.9" font-family="Times Roman,serif" font-size="14.00">UsersController</text>
<polyline fill="none" stroke="black" points="487,-717.5 590,-717.5 "/>
<text text-anchor="start" x="495" y="-700.9" font-family="Times Roman,serif" font-size="14.00">create</text>
<text text-anchor="start" x="495" y="-681.9" font-family="Times Roman,serif" font-size="14.00">destroy</text>
<text text-anchor="start" x="495" y="-662.9" font-family="Times Roman,serif" font-size="14.00">edit</text>
<text text-anchor="start" x="495" y="-643.9" font-family="Times Roman,serif" font-size="14.00">index</text>
<text text-anchor="start" x="495" y="-624.9" font-family="Times Roman,serif" font-size="14.00">new</text>
<text text-anchor="start" x="495" y="-605.9" font-family="Times Roman,serif" font-size="14.00">show</text>
<text text-anchor="start" x="495" y="-586.9" font-family="Times Roman,serif" font-size="14.00">update</text>
<polyline fill="none" stroke="black" points="487,-576.5 590,-576.5 "/>
<polyline fill="none" stroke="black" points="487,-552.5 590,-552.5 "/>
<text text-anchor="start" x="495" y="-535.9" font-family="Times Roman,serif" font-size="14.00">_layout</text>
<text text-anchor="start" x="495" y="-516.9" font-family="Times Roman,serif" font-size="14.00">set_user</text>
<text text-anchor="start" x="495" y="-497.9" font-family="Times Roman,serif" font-size="14.00">user_params</text>
</g>
</g>
</svg>
