<?xml version="1.0" encoding="UTF-8" standalone="no"?>
<!DOCTYPE svg PUBLIC "-//W3C//DTD SVG 1.1//EN"
 "http://www.w3.org/Graphics/SVG/1.1/DTD/svg11.dtd">
<!-- Generated by graphviz version 2.26.0 (20091210.2329)
 -->
<!-- Title: models_diagram Pages: 1 -->
<svg width="398pt" height="250pt"
 viewBox="0.00 0.00 398.00 250.00" xmlns="http://www.w3.org/2000/svg" xmlns:xlink="http://www.w3.org/1999/xlink">
<g id="graph1" class="graph" transform="scale(1 1) rotate(0) translate(4 246)">
<title>models_diagram</title>
<polygon fill="white" stroke="white" points="-4,5 -4,-246 395,-246 395,5 -4,5"/>
<!-- _diagram_info -->
<g id="node1" class="node"><title>_diagram_info</title>
<text text-anchor="start" x="8" y="-225.8" font-family="Times Roman,serif" font-size="13.00">Models diagram</text>
<text text-anchor="start" x="8" y="-208.8" font-family="Times Roman,serif" font-size="13.00">Date: Jan 09 2015 &#45; 12:28</text>
<text text-anchor="start" x="8" y="-191.8" font-family="Times Roman,serif" font-size="13.00">Migration version: 20150106023606</text>
<text text-anchor="start" x="8" y="-174.8" font-family="Times Roman,serif" font-size="13.00">Generated by RailRoady 1.2.0</text>
<text text-anchor="start" x="8" y="-157.8" font-family="Times Roman,serif" font-size="13.00">http://railroady.prestonlee.com</text>
</g>
<!-- Product -->
<g id="node2" class="node"><title>Product</title>
<ellipse fill="none" stroke="black" cx="273" cy="-195" rx="41.2167" ry="19.0919"/>
<text text-anchor="middle" x="273" y="-191.9" font-family="Times Roman,serif" font-size="14.00">Product</text>
</g>
<!-- Order -->
<g id="node3" class="node"><title>Order</title>
<ellipse fill="none" stroke="black" cx="242" cy="-93" rx="33.9411" ry="19.0919"/>
<text text-anchor="middle" x="242" y="-89.9" font-family="Times Roman,serif" font-size="14.00">Order</text>
</g>
<!-- Product&#45;&gt;Order -->
<g id="edge4" class="edge"><title>Product&#45;&gt;Order</title>
<path fill="none" stroke="#e479a0" d="M264.224,-166.125C259.96,-152.095 254.854,-135.293 250.612,-121.336"/>
<polygon fill="#e479a0" stroke="#e479a0" points="264.261,-166.247 262.864,-177.123 265.715,-171.031 267.169,-175.815 267.169,-175.815 267.169,-175.815 265.715,-171.031 271.475,-174.506 264.261,-166.247 264.261,-166.247"/>
<polygon fill="#e479a0" stroke="#e479a0" points="250.608,-121.323 252.006,-110.446 249.154,-116.539 247.7,-111.755 247.7,-111.755 247.7,-111.755 249.154,-116.539 243.394,-113.063 250.608,-121.323 250.608,-121.323"/>
</g>
<!-- LineItem -->
<g id="node5" class="node"><title>LineItem</title>
<ellipse fill="none" stroke="black" cx="304" cy="-19" rx="46.8775" ry="19.0919"/>
<text text-anchor="middle" x="304" y="-15.9" font-family="Times Roman,serif" font-size="14.00">LineItem</text>
</g>
<!-- Product&#45;&gt;LineItem -->
<g id="edge2" class="edge"><title>Product&#45;&gt;LineItem</title>
<path fill="none" stroke="#25f82f" d="M277.804,-167.724C283.516,-135.294 293.01,-81.3921 298.864,-48.1573"/>
<ellipse fill="none" stroke="#25f82f" cx="277.07" cy="-171.891" rx="4.00001" ry="4.00001"/>
<polygon fill="#25f82f" stroke="#25f82f" points="298.893,-47.9949 305.059,-38.9271 299.76,-43.0707 300.628,-38.1465 300.628,-38.1465 300.628,-38.1465 299.76,-43.0707 296.196,-37.3659 298.893,-47.9949 298.893,-47.9949"/>
</g>
<!-- Order&#45;&gt;LineItem -->
<g id="edge6" class="edge"><title>Order&#45;&gt;LineItem</title>
<path fill="none" stroke="#05be72" d="M261.911,-69.2351C268.305,-61.6035 275.424,-53.1067 281.961,-45.3042"/>
<ellipse fill="none" stroke="#05be72" cx="259.262" cy="-72.3969" rx="4.00002" ry="4.00002"/>
<polygon fill="#05be72" stroke="#05be72" points="282.343,-44.8491 292.214,-40.0739 285.554,-41.0165 288.765,-37.1839 288.765,-37.1839 288.765,-37.1839 285.554,-41.0165 285.316,-34.2939 282.343,-44.8491 282.343,-44.8491"/>
</g>
<!-- Cart -->
<g id="node4" class="node"><title>Cart</title>
<ellipse fill="none" stroke="black" cx="360" cy="-93" rx="27.7881" ry="19.0919"/>
<text text-anchor="middle" x="360" y="-89.9" font-family="Times Roman,serif" font-size="14.00">Cart</text>
</g>
<!-- Cart&#45;&gt;LineItem -->
<g id="edge8" class="edge"><title>Cart&#45;&gt;LineItem</title>
<path fill="none" stroke="#1a40c9" d="M342.073,-69.3103C336.323,-61.7132 329.921,-53.2523 324.031,-45.4695"/>
<ellipse fill="none" stroke="#1a40c9" cx="344.598" cy="-72.6473" rx="4.00002" ry="4.00002"/>
<polygon fill="#1a40c9" stroke="#1a40c9" points="323.931,-45.3375 321.485,-34.6479 320.914,-41.3505 317.897,-37.3634 317.897,-37.3634 317.897,-37.3634 320.914,-41.3505 314.308,-40.0789 323.931,-45.3375 323.931,-45.3375"/>
</g>
<!-- User -->
<g id="node6" class="node"><title>User</title>
<ellipse fill="none" stroke="black" cx="361" cy="-195" rx="29.1951" ry="19.0919"/>
<text text-anchor="middle" x="361" y="-191.9" font-family="Times Roman,serif" font-size="14.00">User</text>
</g>
</g>
</svg>
