<?xml version="1.0" encoding="UTF-8" standalone="no"?>
<!DOCTYPE svg PUBLIC "-//W3C//DTD SVG 1.1//EN"
 "http://www.w3.org/Graphics/SVG/1.1/DTD/svg11.dtd">
<!-- Generated by graphviz version 2.26.0 (20091210.2329)
 -->
<!-- Title: models_diagram Pages: 1 -->
<svg width="532pt" height="608pt"
 viewBox="0.00 0.00 532.00 608.00" xmlns="http://www.w3.org/2000/svg" xmlns:xlink="http://www.w3.org/1999/xlink">
<g id="graph1" class="graph" transform="scale(1 1) rotate(0) translate(4 604)">
<title>models_diagram</title>
<polygon fill="white" stroke="white" points="-4,5 -4,-604 529,-604 529,5 -4,5"/>
<!-- _diagram_info -->
<g id="node1" class="node"><title>_diagram_info</title>
<text text-anchor="start" x="8" y="-545.8" font-family="Times Roman,serif" font-size="13.00">Models diagram</text>
<text text-anchor="start" x="8" y="-528.8" font-family="Times Roman,serif" font-size="13.00">Date: Jan 09 2015 &#45; 12:28</text>
<text text-anchor="start" x="8" y="-511.8" font-family="Times Roman,serif" font-size="13.00">Migration version: 20150106023606</text>
<text text-anchor="start" x="8" y="-494.8" font-family="Times Roman,serif" font-size="13.00">Generated by RailRoady 1.2.0</text>
<text text-anchor="start" x="8" y="-477.8" font-family="Times Roman,serif" font-size="13.00">http://railroady.prestonlee.com</text>
</g>
<!-- Product -->
<g id="node2" class="node"><title>Product</title>
<polyline fill="none" stroke="black" points="243.5,-431 350.5,-431 "/>
<path fill="none" stroke="black" d="M350.5,-431C356.5,-431 362.5,-437 362.5,-443"/>
<polyline fill="none" stroke="black" points="362.5,-443 362.5,-587 "/>
<path fill="none" stroke="black" d="M362.5,-587C362.5,-593 356.5,-599 350.5,-599"/>
<polyline fill="none" stroke="black" points="350.5,-599 243.5,-599 "/>
<path fill="none" stroke="black" d="M243.5,-599C237.5,-599 231.5,-593 231.5,-587"/>
<polyline fill="none" stroke="black" points="231.5,-587 231.5,-443 "/>
<path fill="none" stroke="black" d="M231.5,-443C231.5,-437 237.5,-431 243.5,-431"/>
<text text-anchor="middle" x="297" y="-582.4" font-family="Times Roman,serif" font-size="14.00">Product</text>
<polyline fill="none" stroke="black" points="231.5,-572 362.5,-572 "/>
<text text-anchor="start" x="239.5" y="-555.4" font-family="Times Roman,serif" font-size="14.00">id :integer</text>
<text text-anchor="start" x="239.5" y="-536.4" font-family="Times Roman,serif" font-size="14.00">title :string</text>
<text text-anchor="start" x="239.5" y="-517.4" font-family="Times Roman,serif" font-size="14.00">description :text</text>
<text text-anchor="start" x="239.5" y="-498.4" font-family="Times Roman,serif" font-size="14.00">image_url :string</text>
<text text-anchor="start" x="239.5" y="-479.4" font-family="Times Roman,serif" font-size="14.00">price :decimal</text>
<text text-anchor="start" x="239.5" y="-460.4" font-family="Times Roman,serif" font-size="14.00">created_at :datetime</text>
<text text-anchor="start" x="239.5" y="-441.4" font-family="Times Roman,serif" font-size="14.00">updated_at :datetime</text>
</g>
<!-- Order -->
<g id="node3" class="node"><title>Order</title>
<polyline fill="none" stroke="black" points="196.5,-206.5 303.5,-206.5 "/>
<path fill="none" stroke="black" d="M303.5,-206.5C309.5,-206.5 315.5,-212.5 315.5,-218.5"/>
<polyline fill="none" stroke="black" points="315.5,-218.5 315.5,-381.5 "/>
<path fill="none" stroke="black" d="M315.5,-381.5C315.5,-387.5 309.5,-393.5 303.5,-393.5"/>
<polyline fill="none" stroke="black" points="303.5,-393.5 196.5,-393.5 "/>
<path fill="none" stroke="black" d="M196.5,-393.5C190.5,-393.5 184.5,-387.5 184.5,-381.5"/>
<polyline fill="none" stroke="black" points="184.5,-381.5 184.5,-218.5 "/>
<path fill="none" stroke="black" d="M184.5,-218.5C184.5,-212.5 190.5,-206.5 196.5,-206.5"/>
<text text-anchor="middle" x="250" y="-376.9" font-family="Times Roman,serif" font-size="14.00">Order</text>
<polyline fill="none" stroke="black" points="184.5,-366.5 315.5,-366.5 "/>
<text text-anchor="start" x="192.5" y="-349.9" font-family="Times Roman,serif" font-size="14.00">id :integer</text>
<text text-anchor="start" x="192.5" y="-330.9" font-family="Times Roman,serif" font-size="14.00">name :string</text>
<text text-anchor="start" x="192.5" y="-311.9" font-family="Times Roman,serif" font-size="14.00">address :text</text>
<text text-anchor="start" x="192.5" y="-292.9" font-family="Times Roman,serif" font-size="14.00">email :string</text>
<text text-anchor="start" x="192.5" y="-273.9" font-family="Times Roman,serif" font-size="14.00">pay_type :string</text>
<text text-anchor="start" x="192.5" y="-254.9" font-family="Times Roman,serif" font-size="14.00">created_at :datetime</text>
<text text-anchor="start" x="192.5" y="-235.9" font-family="Times Roman,serif" font-size="14.00">updated_at :datetime</text>
<text text-anchor="start" x="192.5" y="-216.9" font-family="Times Roman,serif" font-size="14.00">apointmentdate :date</text>
</g>
<!-- Product&#45;&gt;Order -->
<g id="edge4" class="edge"><title>Product&#45;&gt;Order</title>
<path fill="none" stroke="#4ae3e0" d="M276.476,-421.113C275.198,-415.267 273.908,-409.365 272.621,-403.48"/>
<polygon fill="#4ae3e0" stroke="#4ae3e0" points="276.491,-421.182 274.23,-431.913 277.559,-426.067 278.627,-430.952 278.627,-430.952 278.627,-430.952 277.559,-426.067 283.023,-429.991 276.491,-421.182 276.491,-421.182"/>
<polygon fill="#4ae3e0" stroke="#4ae3e0" points="272.598,-403.373 274.858,-392.642 271.53,-398.488 270.462,-393.603 270.462,-393.603 270.462,-393.603 271.53,-398.488 266.066,-394.564 272.598,-403.373 272.598,-403.373"/>
</g>
<!-- LineItem -->
<g id="node5" class="node"><title>LineItem</title>
<polyline fill="none" stroke="black" points="289.5,-1 396.5,-1 "/>
<path fill="none" stroke="black" d="M396.5,-1C402.5,-1 408.5,-7 408.5,-13"/>
<polyline fill="none" stroke="black" points="408.5,-13 408.5,-157 "/>
<path fill="none" stroke="black" d="M408.5,-157C408.5,-163 402.5,-169 396.5,-169"/>
<polyline fill="none" stroke="black" points="396.5,-169 289.5,-169 "/>
<path fill="none" stroke="black" d="M289.5,-169C283.5,-169 277.5,-163 277.5,-157"/>
<polyline fill="none" stroke="black" points="277.5,-157 277.5,-13 "/>
<path fill="none" stroke="black" d="M277.5,-13C277.5,-7 283.5,-1 289.5,-1"/>
<text text-anchor="middle" x="343" y="-152.4" font-family="Times Roman,serif" font-size="14.00">LineItem</text>
<polyline fill="none" stroke="black" points="277.5,-142 408.5,-142 "/>
<text text-anchor="start" x="285.5" y="-125.4" font-family="Times Roman,serif" font-size="14.00">id :integer</text>
<text text-anchor="start" x="285.5" y="-106.4" font-family="Times Roman,serif" font-size="14.00">product_id :integer</text>
<text text-anchor="start" x="285.5" y="-87.4" font-family="Times Roman,serif" font-size="14.00">cart_id :integer</text>
<text text-anchor="start" x="285.5" y="-68.4" font-family="Times Roman,serif" font-size="14.00">created_at :datetime</text>
<text text-anchor="start" x="285.5" y="-49.4" font-family="Times Roman,serif" font-size="14.00">updated_at :datetime</text>
<text text-anchor="start" x="285.5" y="-30.4" font-family="Times Roman,serif" font-size="14.00">quantity :integer</text>
<text text-anchor="start" x="285.5" y="-11.4" font-family="Times Roman,serif" font-size="14.00">order_id :integer</text>
</g>
<!-- Product&#45;&gt;LineItem -->
<g id="edge2" class="edge"><title>Product&#45;&gt;LineItem</title>
<path fill="none" stroke="#3792f6" d="M319.185,-422.622C321.025,-412.995 322.682,-403.324 324,-394 334.123,-322.416 338.853,-240.748 341.063,-179.356"/>
<ellipse fill="none" stroke="#3792f6" cx="318.371" cy="-426.765" rx="4.00001" ry="4.00001"/>
<polygon fill="#3792f6" stroke="#3792f6" points="341.066,-179.291 345.907,-169.451 341.238,-174.294 341.41,-169.297 341.41,-169.297 341.41,-169.297 341.238,-174.294 336.912,-169.142 341.066,-179.291 341.066,-179.291"/>
</g>
<!-- Order&#45;&gt;LineItem -->
<g id="edge6" class="edge"><title>Order&#45;&gt;LineItem</title>
<path fill="none" stroke="#1e7c69" d="M293.783,-198.782C296.656,-192.139 299.543,-185.464 302.401,-178.859"/>
<ellipse fill="none" stroke="#1e7c69" cx="292.109" cy="-202.652" rx="4.00002" ry="4.00002"/>
<polygon fill="#1e7c69" stroke="#1e7c69" points="302.59,-178.422 310.69,-171.03 304.575,-173.832 306.56,-169.243 306.56,-169.243 306.56,-169.243 304.575,-173.832 302.43,-167.457 302.59,-178.422 302.59,-178.422"/>
</g>
<!-- Cart -->
<g id="node4" class="node"><title>Cart</title>
<polyline fill="none" stroke="black" points="382.5,-254 489.5,-254 "/>
<path fill="none" stroke="black" d="M489.5,-254C495.5,-254 501.5,-260 501.5,-266"/>
<polyline fill="none" stroke="black" points="501.5,-266 501.5,-334 "/>
<path fill="none" stroke="black" d="M501.5,-334C501.5,-340 495.5,-346 489.5,-346"/>
<polyline fill="none" stroke="black" points="489.5,-346 382.5,-346 "/>
<path fill="none" stroke="black" d="M382.5,-346C376.5,-346 370.5,-340 370.5,-334"/>
<polyline fill="none" stroke="black" points="370.5,-334 370.5,-266 "/>
<path fill="none" stroke="black" d="M370.5,-266C370.5,-260 376.5,-254 382.5,-254"/>
<text text-anchor="middle" x="436" y="-329.4" font-family="Times Roman,serif" font-size="14.00">Cart</text>
<polyline fill="none" stroke="black" points="370.5,-319 501.5,-319 "/>
<text text-anchor="start" x="378.5" y="-302.4" font-family="Times Roman,serif" font-size="14.00">id :integer</text>
<text text-anchor="start" x="378.5" y="-283.4" font-family="Times Roman,serif" font-size="14.00">created_at :datetime</text>
<text text-anchor="start" x="378.5" y="-264.4" font-family="Times Roman,serif" font-size="14.00">updated_at :datetime</text>
</g>
<!-- Cart&#45;&gt;LineItem -->
<g id="edge8" class="edge"><title>Cart&#45;&gt;LineItem</title>
<path fill="none" stroke="#f2aa29" d="M412.845,-246.47C403.934,-225.869 393.479,-201.698 383.411,-178.423"/>
<ellipse fill="none" stroke="#f2aa29" cx="414.461" cy="-250.206" rx="4.00002" ry="4.00002"/>
<polygon fill="#f2aa29" stroke="#f2aa29" points="383.397,-178.39 383.557,-167.426 381.412,-173.801 379.427,-169.212 379.427,-169.212 379.427,-169.212 381.412,-173.801 375.296,-170.999 383.397,-178.39 383.397,-178.39"/>
</g>
<!-- User -->
<g id="node6" class="node"><title>User</title>
<polyline fill="none" stroke="black" points="391.5,-450 512.5,-450 "/>
<path fill="none" stroke="black" d="M512.5,-450C518.5,-450 524.5,-456 524.5,-462"/>
<polyline fill="none" stroke="black" points="524.5,-462 524.5,-568 "/>
<path fill="none" stroke="black" d="M524.5,-568C524.5,-574 518.5,-580 512.5,-580"/>
<polyline fill="none" stroke="black" points="512.5,-580 391.5,-580 "/>
<path fill="none" stroke="black" d="M391.5,-580C385.5,-580 379.5,-574 379.5,-568"/>
<polyline fill="none" stroke="black" points="379.5,-568 379.5,-462 "/>
<path fill="none" stroke="black" d="M379.5,-462C379.5,-456 385.5,-450 391.5,-450"/>
<text text-anchor="middle" x="452" y="-563.4" font-family="Times Roman,serif" font-size="14.00">User</text>
<polyline fill="none" stroke="black" points="379.5,-553 524.5,-553 "/>
<text text-anchor="start" x="387.5" y="-536.4" font-family="Times Roman,serif" font-size="14.00">id :integer</text>
<text text-anchor="start" x="387.5" y="-517.4" font-family="Times Roman,serif" font-size="14.00">name :string</text>
<text text-anchor="start" x="387.5" y="-498.4" font-family="Times Roman,serif" font-size="14.00">password_digest :string</text>
<text text-anchor="start" x="387.5" y="-479.4" font-family="Times Roman,serif" font-size="14.00">created_at :datetime</text>
<text text-anchor="start" x="387.5" y="-460.4" font-family="Times Roman,serif" font-size="14.00">updated_at :datetime</text>
</g>
</g>
</svg>
