<?xml version="1.0" encoding="UTF-8" standalone="no"?>
<!DOCTYPE svg PUBLIC "-//W3C//DTD SVG 1.1//EN"
 "http://www.w3.org/Graphics/SVG/1.1/DTD/svg11.dtd">
<!-- Generated by graphviz version 2.26.0 (20091210.2329)
 -->
<!-- Title: models_diagram Pages: 1 -->
<svg width="532pt" height="628pt"
 viewBox="0.00 0.00 532.00 628.00" xmlns="http://www.w3.org/2000/svg" xmlns:xlink="http://www.w3.org/1999/xlink">
<g id="graph1" class="graph" transform="scale(1 1) rotate(0) translate(4 624)">
<title>models_diagram</title>
<polygon fill="white" stroke="white" points="-4,5 -4,-624 529,-624 529,5 -4,5"/>
<!-- _diagram_info -->
<g id="node1" class="node"><title>_diagram_info</title>
<text text-anchor="start" x="8" y="-565.8" font-family="Times Roman,serif" font-size="13.00">Models diagram</text>
<text text-anchor="start" x="8" y="-548.8" font-family="Times Roman,serif" font-size="13.00">Date: Jan 15 2015 &#45; 13:17</text>
<text text-anchor="start" x="8" y="-531.8" font-family="Times Roman,serif" font-size="13.00">Migration version: 20141223151842</text>
<text text-anchor="start" x="8" y="-514.8" font-family="Times Roman,serif" font-size="13.00">Generated by RailRoady 1.2.0</text>
<text text-anchor="start" x="8" y="-497.8" font-family="Times Roman,serif" font-size="13.00">http://railroady.prestonlee.com</text>
</g>
<!-- Product -->
<g id="node2" class="node"><title>Product</title>
<polyline fill="none" stroke="black" points="243.5,-451 350.5,-451 "/>
<path fill="none" stroke="black" d="M350.5,-451C356.5,-451 362.5,-457 362.5,-463"/>
<polyline fill="none" stroke="black" points="362.5,-463 362.5,-607 "/>
<path fill="none" stroke="black" d="M362.5,-607C362.5,-613 356.5,-619 350.5,-619"/>
<polyline fill="none" stroke="black" points="350.5,-619 243.5,-619 "/>
<path fill="none" stroke="black" d="M243.5,-619C237.5,-619 231.5,-613 231.5,-607"/>
<polyline fill="none" stroke="black" points="231.5,-607 231.5,-463 "/>
<path fill="none" stroke="black" d="M231.5,-463C231.5,-457 237.5,-451 243.5,-451"/>
<text text-anchor="middle" x="297" y="-602.4" font-family="Times Roman,serif" font-size="14.00">Product</text>
<polyline fill="none" stroke="black" points="231.5,-592 362.5,-592 "/>
<text text-anchor="start" x="239.5" y="-575.4" font-family="Times Roman,serif" font-size="14.00">id :integer</text>
<text text-anchor="start" x="239.5" y="-556.4" font-family="Times Roman,serif" font-size="14.00">title :string</text>
<text text-anchor="start" x="239.5" y="-537.4" font-family="Times Roman,serif" font-size="14.00">description :text</text>
<text text-anchor="start" x="239.5" y="-518.4" font-family="Times Roman,serif" font-size="14.00">image_url :string</text>
<text text-anchor="start" x="239.5" y="-499.4" font-family="Times Roman,serif" font-size="14.00">price :decimal</text>
<text text-anchor="start" x="239.5" y="-480.4" font-family="Times Roman,serif" font-size="14.00">created_at :datetime</text>
<text text-anchor="start" x="239.5" y="-461.4" font-family="Times Roman,serif" font-size="14.00">updated_at :datetime</text>
</g>
<!-- Order -->
<g id="node3" class="node"><title>Order</title>
<polyline fill="none" stroke="black" points="196.5,-207 303.5,-207 "/>
<path fill="none" stroke="black" d="M303.5,-207C309.5,-207 315.5,-213 315.5,-219"/>
<polyline fill="none" stroke="black" points="315.5,-219 315.5,-401 "/>
<path fill="none" stroke="black" d="M315.5,-401C315.5,-407 309.5,-413 303.5,-413"/>
<polyline fill="none" stroke="black" points="303.5,-413 196.5,-413 "/>
<path fill="none" stroke="black" d="M196.5,-413C190.5,-413 184.5,-407 184.5,-401"/>
<polyline fill="none" stroke="black" points="184.5,-401 184.5,-219 "/>
<path fill="none" stroke="black" d="M184.5,-219C184.5,-213 190.5,-207 196.5,-207"/>
<text text-anchor="middle" x="250" y="-396.4" font-family="Times Roman,serif" font-size="14.00">Order</text>
<polyline fill="none" stroke="black" points="184.5,-386 315.5,-386 "/>
<text text-anchor="start" x="192.5" y="-369.4" font-family="Times Roman,serif" font-size="14.00">id :integer</text>
<text text-anchor="start" x="192.5" y="-350.4" font-family="Times Roman,serif" font-size="14.00">name :string</text>
<text text-anchor="start" x="192.5" y="-331.4" font-family="Times Roman,serif" font-size="14.00">address :text</text>
<text text-anchor="start" x="192.5" y="-312.4" font-family="Times Roman,serif" font-size="14.00">email :string</text>
<text text-anchor="start" x="192.5" y="-293.4" font-family="Times Roman,serif" font-size="14.00">pay_type :string</text>
<text text-anchor="start" x="192.5" y="-274.4" font-family="Times Roman,serif" font-size="14.00">delivery :boolean</text>
<text text-anchor="start" x="192.5" y="-255.4" font-family="Times Roman,serif" font-size="14.00">apointmentdate :date</text>
<text text-anchor="start" x="192.5" y="-236.4" font-family="Times Roman,serif" font-size="14.00">created_at :datetime</text>
<text text-anchor="start" x="192.5" y="-217.4" font-family="Times Roman,serif" font-size="14.00">updated_at :datetime</text>
</g>
<!-- Product&#45;&gt;Order -->
<g id="edge4" class="edge"><title>Product&#45;&gt;Order</title>
<path fill="none" stroke="#31b4d5" d="M277.356,-440.96C276.121,-435.046 274.871,-429.061 273.62,-423.075"/>
<polygon fill="#31b4d5" stroke="#31b4d5" points="277.387,-441.11 275.027,-451.819 278.41,-446.004 279.432,-450.898 279.432,-450.898 279.432,-450.898 278.41,-446.004 283.837,-449.978 277.387,-441.11 277.387,-441.11"/>
<polygon fill="#31b4d5" stroke="#31b4d5" points="273.563,-422.799 275.923,-412.09 272.54,-417.905 271.518,-413.011 271.518,-413.011 271.518,-413.011 272.54,-417.905 267.113,-413.931 273.563,-422.799 273.563,-422.799"/>
</g>
<!-- LineItem -->
<g id="node5" class="node"><title>LineItem</title>
<polyline fill="none" stroke="black" points="289.5,-1 396.5,-1 "/>
<path fill="none" stroke="black" d="M396.5,-1C402.5,-1 408.5,-7 408.5,-13"/>
<polyline fill="none" stroke="black" points="408.5,-13 408.5,-157 "/>
<path fill="none" stroke="black" d="M408.5,-157C408.5,-163 402.5,-169 396.5,-169"/>
<polyline fill="none" stroke="black" points="396.5,-169 289.5,-169 "/>
<path fill="none" stroke="black" d="M289.5,-169C283.5,-169 277.5,-163 277.5,-157"/>
<polyline fill="none" stroke="black" points="277.5,-157 277.5,-13 "/>
<path fill="none" stroke="black" d="M277.5,-13C277.5,-7 283.5,-1 289.5,-1"/>
<text text-anchor="middle" x="343" y="-152.4" font-family="Times Roman,serif" font-size="14.00">LineItem</text>
<polyline fill="none" stroke="black" points="277.5,-142 408.5,-142 "/>
<text text-anchor="start" x="285.5" y="-125.4" font-family="Times Roman,serif" font-size="14.00">id :integer</text>
<text text-anchor="start" x="285.5" y="-106.4" font-family="Times Roman,serif" font-size="14.00">product_id :integer</text>
<text text-anchor="start" x="285.5" y="-87.4" font-family="Times Roman,serif" font-size="14.00">cart_id :integer</text>
<text text-anchor="start" x="285.5" y="-68.4" font-family="Times Roman,serif" font-size="14.00">order_id :integer</text>
<text text-anchor="start" x="285.5" y="-49.4" font-family="Times Roman,serif" font-size="14.00">quantity :integer</text>
<text text-anchor="start" x="285.5" y="-30.4" font-family="Times Roman,serif" font-size="14.00">created_at :datetime</text>
<text text-anchor="start" x="285.5" y="-11.4" font-family="Times Roman,serif" font-size="14.00">updated_at :datetime</text>
</g>
<!-- Product&#45;&gt;LineItem -->
<g id="edge2" class="edge"><title>Product&#45;&gt;LineItem</title>
<path fill="none" stroke="#076055" d="M319.221,-442.627C321.054,-432.999 322.699,-423.326 324,-414 334.956,-335.471 339.618,-245.548 341.59,-179.582"/>
<ellipse fill="none" stroke="#076055" cx="318.409" cy="-446.77" rx="4.00001" ry="4.00001"/>
<polygon fill="#076055" stroke="#076055" points="341.6,-179.202 346.382,-169.333 341.742,-174.204 341.884,-169.206 341.884,-169.206 341.884,-169.206 341.742,-174.204 337.385,-169.078 341.6,-179.202 341.6,-179.202"/>
</g>
<!-- Order&#45;&gt;LineItem -->
<g id="edge6" class="edge"><title>Order&#45;&gt;LineItem</title>
<path fill="none" stroke="#2fe1b6" d="M295.867,-199.032C298.727,-192.113 301.589,-185.187 304.412,-178.357"/>
<ellipse fill="none" stroke="#2fe1b6" cx="294.217" cy="-203.023" rx="4.00001" ry="4.00001"/>
<polygon fill="#2fe1b6" stroke="#2fe1b6" points="304.413,-178.356 312.392,-170.833 306.323,-173.735 308.233,-169.114 308.233,-169.114 308.233,-169.114 306.323,-173.735 304.074,-167.395 304.413,-178.356 304.413,-178.356"/>
</g>
<!-- Cart -->
<g id="node4" class="node"><title>Cart</title>
<polyline fill="none" stroke="black" points="382.5,-264 489.5,-264 "/>
<path fill="none" stroke="black" d="M489.5,-264C495.5,-264 501.5,-270 501.5,-276"/>
<polyline fill="none" stroke="black" points="501.5,-276 501.5,-344 "/>
<path fill="none" stroke="black" d="M501.5,-344C501.5,-350 495.5,-356 489.5,-356"/>
<polyline fill="none" stroke="black" points="489.5,-356 382.5,-356 "/>
<path fill="none" stroke="black" d="M382.5,-356C376.5,-356 370.5,-350 370.5,-344"/>
<polyline fill="none" stroke="black" points="370.5,-344 370.5,-276 "/>
<path fill="none" stroke="black" d="M370.5,-276C370.5,-270 376.5,-264 382.5,-264"/>
<text text-anchor="middle" x="436" y="-339.4" font-family="Times Roman,serif" font-size="14.00">Cart</text>
<polyline fill="none" stroke="black" points="370.5,-329 501.5,-329 "/>
<text text-anchor="start" x="378.5" y="-312.4" font-family="Times Roman,serif" font-size="14.00">id :integer</text>
<text text-anchor="start" x="378.5" y="-293.4" font-family="Times Roman,serif" font-size="14.00">created_at :datetime</text>
<text text-anchor="start" x="378.5" y="-274.4" font-family="Times Roman,serif" font-size="14.00">updated_at :datetime</text>
</g>
<!-- Cart&#45;&gt;LineItem -->
<g id="edge8" class="edge"><title>Cart&#45;&gt;LineItem</title>
<path fill="none" stroke="#7d5677" d="M413.841,-256.391C404.21,-233.089 392.638,-205.092 381.666,-178.546"/>
<ellipse fill="none" stroke="#7d5677" cx="415.428" cy="-260.228" rx="4.00002" ry="4.00002"/>
<polygon fill="#7d5677" stroke="#7d5677" points="381.634,-178.468 381.972,-167.508 379.724,-173.848 377.814,-169.227 377.814,-169.227 377.814,-169.227 379.724,-173.848 373.655,-170.946 381.634,-178.468 381.634,-178.468"/>
</g>
<!-- User -->
<g id="node6" class="node"><title>User</title>
<polyline fill="none" stroke="black" points="391.5,-470 512.5,-470 "/>
<path fill="none" stroke="black" d="M512.5,-470C518.5,-470 524.5,-476 524.5,-482"/>
<polyline fill="none" stroke="black" points="524.5,-482 524.5,-588 "/>
<path fill="none" stroke="black" d="M524.5,-588C524.5,-594 518.5,-600 512.5,-600"/>
<polyline fill="none" stroke="black" points="512.5,-600 391.5,-600 "/>
<path fill="none" stroke="black" d="M391.5,-600C385.5,-600 379.5,-594 379.5,-588"/>
<polyline fill="none" stroke="black" points="379.5,-588 379.5,-482 "/>
<path fill="none" stroke="black" d="M379.5,-482C379.5,-476 385.5,-470 391.5,-470"/>
<text text-anchor="middle" x="452" y="-583.4" font-family="Times Roman,serif" font-size="14.00">User</text>
<polyline fill="none" stroke="black" points="379.5,-573 524.5,-573 "/>
<text text-anchor="start" x="387.5" y="-556.4" font-family="Times Roman,serif" font-size="14.00">id :integer</text>
<text text-anchor="start" x="387.5" y="-537.4" font-family="Times Roman,serif" font-size="14.00">name :string</text>
<text text-anchor="start" x="387.5" y="-518.4" font-family="Times Roman,serif" font-size="14.00">password_digest :string</text>
<text text-anchor="start" x="387.5" y="-499.4" font-family="Times Roman,serif" font-size="14.00">created_at :datetime</text>
<text text-anchor="start" x="387.5" y="-480.4" font-family="Times Roman,serif" font-size="14.00">updated_at :datetime</text>
</g>
</g>
</svg>
